<svg width="24" height="24" viewBox="0 0 24 24" fill="none" xmlns="http://www.w3.org/2000/svg">
<g clip-path="url(#clip0_1038_12039)">
<path d="M20.4894 3.51083C15.808 -1.16999 8.19199 -1.16999 3.51065 3.51083C-1.17018 8.19166 -1.17018 15.8079 3.51065 20.489C5.8513 22.8294 8.92568 23.9998 12 23.9998C15.0743 23.9998 18.1487 22.8294 20.4894 20.489C25.1702 15.8082 25.1702 8.19194 20.4894 3.51083ZM7.7284 5.64734C8.17146 5.20376 8.7619 4.95926 9.3895 4.95926C10.0171 4.95926 10.6075 5.20376 11.0511 5.64781C11.4947 6.09138 11.7389 6.6813 11.7389 7.30868C11.7389 7.93628 11.4947 8.5262 11.0506 8.97001C10.607 9.41382 10.0171 9.65809 9.3895 9.65809C8.7619 9.65809 8.17198 9.41387 7.7284 8.97001C7.28431 8.52616 7.04009 7.93628 7.04009 7.30868C7.04009 6.68107 7.28431 6.0912 7.7284 5.64734ZM8.12355 16.9838C7.9706 17.1367 7.77021 17.2132 7.56987 17.2132C7.36953 17.2132 7.16909 17.1367 7.01618 16.9838C6.71018 16.6782 6.71018 16.182 7.01614 15.8764L15.8765 7.01608C16.1824 6.71018 16.678 6.71018 16.9839 7.01608C17.2898 7.32171 17.2898 7.81783 16.9839 8.1235L8.12355 16.9838ZM16.7937 17.8381C16.3506 18.2816 15.7602 18.5261 15.1326 18.5261C14.505 18.5261 13.9145 18.2816 13.4709 17.8376C13.0274 17.3943 12.7831 16.8044 12.7831 16.1767C12.7831 15.5491 13.0274 14.9592 13.4715 14.5154C13.9145 14.0718 14.505 13.8273 15.1326 13.8273C15.7602 13.8273 16.3506 14.0718 16.7942 14.5159C17.2378 14.9594 17.482 15.5494 17.482 16.1767C17.482 16.8043 17.2378 17.3942 16.7937 17.8381Z" fill="#FFBC57"/>
</g>
<defs>
<clipPath id="clip0_1038_12039">
<rect width="24" height="24" fill="white"/>
</clipPath>
</defs>
</svg>
