<svg width="58" height="58" viewBox="0 0 58 58" fill="none" xmlns="http://www.w3.org/2000/svg">
<g clip-path="url(#clip0_76_276)" filter="url(#filter0_d_76_276)">
<circle opacity="0.2" cx="29" cy="25" r="24" stroke="#B1B1B1" stroke-width="2"/>
<path d="M28.8 14C26.4661 14 24.2278 14.9271 22.5775 16.5775C20.9271 18.2278 20 20.4661 20 22.8C20 28.74 27.755 35.4499 28.085 35.7359C28.2842 35.9064 28.5378 36 28.8 36C29.0622 36 29.3157 35.9064 29.515 35.7359C29.9 35.4499 37.5999 28.74 37.5999 22.8C37.5999 20.4661 36.6728 18.2278 35.0225 16.5775C33.3722 14.9271 31.1339 14 28.8 14ZM28.8 33.4149C26.457 31.2149 22.2 26.474 22.2 22.8C22.2 21.0495 22.8953 19.3708 24.1331 18.1331C25.3708 16.8953 27.0495 16.2 28.8 16.2C30.5504 16.2 32.2291 16.8953 33.4669 18.1331C34.7046 19.3708 35.4 21.0495 35.4 22.8C35.4 26.474 31.143 31.2259 28.8 33.4149ZM28.8 18.4C27.9297 18.4 27.079 18.658 26.3555 19.1415C25.6319 19.625 25.0679 20.3122 24.7349 21.1162C24.4019 21.9202 24.3148 22.8049 24.4845 23.6584C24.6543 24.5119 25.0734 25.2959 25.6887 25.9112C26.3041 26.5266 27.0881 26.9456 27.9416 27.1154C28.7951 27.2852 29.6798 27.1981 30.4838 26.865C31.2878 26.532 31.9749 25.968 32.4584 25.2445C32.9419 24.5209 33.2 23.6702 33.2 22.8C33.2 21.633 32.7364 20.5139 31.9112 19.6887C31.0861 18.8636 29.9669 18.4 28.8 18.4ZM28.8 25C28.3649 25 27.9395 24.8709 27.5777 24.6292C27.2159 24.3875 26.934 24.0439 26.7674 23.6419C26.6009 23.2399 26.5574 22.7975 26.6423 22.3708C26.7271 21.944 26.9367 21.552 27.2443 21.2443C27.552 20.9367 27.944 20.7271 28.3708 20.6423C28.7975 20.5574 29.2399 20.6009 29.6419 20.7674C30.0439 20.934 30.3875 21.2159 30.6292 21.5777C30.8709 21.9395 31 22.3649 31 22.8C31 23.3834 30.7682 23.943 30.3556 24.3556C29.943 24.7682 29.3834 25 28.8 25Z" fill="#B1B1B1"/>
</g>
<defs>
<filter id="filter0_d_76_276" x="0" y="0" width="58" height="58" filterUnits="userSpaceOnUse" color-interpolation-filters="sRGB">
<feFlood flood-opacity="0" result="BackgroundImageFix"/>
<feColorMatrix in="SourceAlpha" type="matrix" values="0 0 0 0 0 0 0 0 0 0 0 0 0 0 0 0 0 0 127 0" result="hardAlpha"/>
<feOffset dy="4"/>
<feGaussianBlur stdDeviation="2"/>
<feComposite in2="hardAlpha" operator="out"/>
<feColorMatrix type="matrix" values="0 0 0 0 0 0 0 0 0 0 0 0 0 0 0 0 0 0 0.25 0"/>
<feBlend mode="normal" in2="BackgroundImageFix" result="effect1_dropShadow_76_276"/>
<feBlend mode="normal" in="SourceGraphic" in2="effect1_dropShadow_76_276" result="shape"/>
</filter>
<clipPath id="clip0_76_276">
<rect width="50" height="50" fill="white" transform="translate(4)"/>
</clipPath>
</defs>
</svg>
