<svg width="25" height="24" viewBox="0 0 25 24" fill="none" xmlns="http://www.w3.org/2000/svg">
<path d="M13.2101 9.1703L17.4501 13.4103C17.5438 13.5033 17.6182 13.6139 17.6689 13.7357C17.7197 13.8576 17.7458 13.9883 17.7458 14.1203C17.7458 14.2523 17.7197 14.383 17.6689 14.5049C17.6182 14.6267 17.5438 14.7373 17.4501 14.8303C17.2627 15.0166 17.0092 15.1211 16.7451 15.1211C16.4809 15.1211 16.2274 15.0166 16.0401 14.8303L12.5001 11.2903L8.96005 14.8303C8.77269 15.0166 8.51924 15.1211 8.25505 15.1211C7.99086 15.1211 7.73741 15.0166 7.55005 14.8303C7.45737 14.7369 7.38404 14.626 7.33428 14.5042C7.28452 14.3824 7.25929 14.2519 7.26005 14.1203C7.25929 13.9887 7.28452 13.8582 7.33428 13.7364C7.38404 13.6146 7.45737 13.5037 7.55005 13.4103L11.7901 9.1703C11.883 9.07657 11.9936 9.00218 12.1155 8.95141C12.2373 8.90064 12.368 8.8745 12.5001 8.8745C12.6321 8.8745 12.7628 8.90064 12.8846 8.95141C13.0065 9.00218 13.1171 9.07657 13.2101 9.1703Z" fill="white"/>
</svg>
