<svg width="24" height="24" viewBox="0 0 24 24" fill="none" xmlns="http://www.w3.org/2000/svg">
<g filter="url(#filter0_d_84_1817)">
<path d="M12.7101 14.8248L16.9501 10.5848C17.0438 10.4919 17.1182 10.3813 17.1689 10.2594C17.2197 10.1375 17.2458 10.0068 17.2458 9.87482C17.2458 9.7428 17.2197 9.6121 17.1689 9.49024C17.1182 9.36838 17.0438 9.25778 16.9501 9.16482C16.7627 8.97856 16.5092 8.87402 16.2451 8.87402C15.9809 8.87402 15.7274 8.97856 15.5401 9.16482L12.0001 12.7048L8.46005 9.16482C8.27269 8.97856 8.01924 8.87402 7.75505 8.87402C7.49086 8.87402 7.23741 8.97856 7.05005 9.16482C6.95737 9.25826 6.88404 9.36907 6.83428 9.49091C6.78452 9.61275 6.75929 9.74321 6.76005 9.87482C6.75929 10.0064 6.78452 10.1369 6.83428 10.2587C6.88404 10.3806 6.95737 10.4914 7.05005 10.5848L11.2901 14.8248C11.383 14.9185 11.4936 14.9929 11.6155 15.0437C11.7373 15.0945 11.868 15.1206 12.0001 15.1206C12.1321 15.1206 12.2628 15.0945 12.3846 15.0437C12.5065 14.9929 12.6171 14.9185 12.7101 14.8248Z" fill="white"/>
</g>
<defs>
<filter id="filter0_d_84_1817" x="-4" y="0" width="32" height="32" filterUnits="userSpaceOnUse" color-interpolation-filters="sRGB">
<feFlood flood-opacity="0" result="BackgroundImageFix"/>
<feColorMatrix in="SourceAlpha" type="matrix" values="0 0 0 0 0 0 0 0 0 0 0 0 0 0 0 0 0 0 127 0" result="hardAlpha"/>
<feOffset dy="4"/>
<feGaussianBlur stdDeviation="2"/>
<feComposite in2="hardAlpha" operator="out"/>
<feColorMatrix type="matrix" values="0 0 0 0 0 0 0 0 0 0 0 0 0 0 0 0 0 0 0.25 0"/>
<feBlend mode="normal" in2="BackgroundImageFix" result="effect1_dropShadow_84_1817"/>
<feBlend mode="normal" in="SourceGraphic" in2="effect1_dropShadow_84_1817" result="shape"/>
</filter>
</defs>
</svg>
