<svg width="250" height="46" viewBox="0 0 250 46" fill="none" xmlns="http://www.w3.org/2000/svg">
<path d="M92.6447 11.7151L103.419 24.8012H96.5285L87.884 13.9585V24.8012H82.4969V0.249263H87.884V10.2196L96.1526 0.249263H102.793L92.6447 11.7151ZM202.516 5.35906H210.033V24.8012H215.42V5.35906H222.937V0.249263H202.391V5.35906H202.516ZM118.954 14.9555L126.596 24.8012H120.081L113.692 16.0772H111.688V24.8012H106.3V0.249263H106.927C108.054 0.249263 109.307 0.249263 110.685 0.249263C112.063 0.249263 113.191 0.249263 114.068 0.249263C121.585 0.249263 123.213 4.48665 123.213 8.1009C123.213 9.97033 122.712 11.5905 121.71 12.8368C120.833 13.7092 119.956 14.457 118.954 14.9555ZM112.314 5.35906C112.063 5.35906 111.938 5.35906 111.688 5.35906V10.9674H113.692C114.82 10.9674 115.822 10.7181 116.573 10.095C117.2 9.59644 117.576 8.84867 117.576 7.97627C117.576 6.72998 117.2 5.23443 113.817 5.23443C113.692 5.23443 113.567 5.23443 113.316 5.23443C113.066 5.35906 112.69 5.35906 112.314 5.35906ZM193.872 0.249263L204.27 24.8012H198.507L196.127 18.819H186.982L184.601 24.8012H179.089L189.362 0.249263H193.872ZM191.492 7.72701L188.986 13.7092H193.997L191.492 7.72701ZM249.497 12.5875C249.497 16.2018 248.244 19.3175 245.864 21.6855C243.483 24.0534 240.351 25.2997 236.718 25.2997C233.085 25.2997 229.953 24.178 227.573 21.8101C225.192 19.4421 223.94 16.451 223.94 12.7122C223.94 9.22256 225.192 6.10683 227.573 3.73888C229.953 1.37092 233.085 0.124634 236.718 0.124634C240.351 0.124634 243.483 1.2463 245.864 3.61425C248.244 5.73294 249.497 8.84867 249.497 12.5875ZM241.98 17.9466C243.358 16.451 243.985 14.7062 243.985 12.4629C243.985 10.2196 243.358 8.47478 241.855 6.97923C240.477 5.60831 238.723 4.86054 236.718 4.86054C234.588 4.86054 232.96 5.60831 231.582 6.97923C230.204 8.35015 229.577 10.2196 229.577 12.4629C229.577 14.7062 230.204 16.451 231.582 17.822C232.96 19.3175 234.588 19.9407 236.718 19.9407C238.973 20.0653 240.602 19.4421 241.98 17.9466ZM176.082 0.249263L169.818 16.451L163.303 0.249263H157.54L167.688 24.8012H171.697L181.594 0.249263H176.082V0.249263Z" fill="#535353"/>
<path d="M153.102 2.49432C151.595 0.997728 149.585 0.124716 147.45 0.124716C145.315 0.124716 143.306 0.997728 141.798 2.49432L141.422 2.86847L140.919 2.3696C139.412 0.873012 137.403 0 135.268 0C133.132 0 131.123 0.873012 129.616 2.3696C128.109 3.8662 127.229 5.86165 127.229 7.98182C127.229 10.102 128.109 12.0975 129.616 13.594L140.543 24.4443C140.794 24.6938 141.045 24.8185 141.422 24.8185C141.798 24.8185 142.05 24.6938 142.301 24.4443L153.228 13.594C154.735 12.0975 155.614 10.102 155.614 7.98182C155.614 5.86165 154.735 3.99091 153.102 2.49432Z" fill="#FFBC57"/>
<mask id="mask0_42_167" style="mask-type:alpha" maskUnits="userSpaceOnUse" x="127" y="0" width="29" height="25">
<path d="M153.102 2.49432C151.595 0.997728 149.585 0.124716 147.45 0.124716C145.315 0.124716 143.306 0.997728 141.798 2.49432L141.422 2.86847L140.919 2.3696C139.412 0.873012 137.403 0 135.268 0C133.132 0 131.123 0.873012 129.616 2.3696C128.109 3.8662 127.229 5.86165 127.229 7.98182C127.229 10.102 128.109 12.0975 129.616 13.594L140.543 24.4443C140.794 24.6938 141.045 24.8185 141.422 24.8185C141.798 24.8185 142.05 24.6938 142.301 24.4443L153.228 13.594C154.735 12.0975 155.614 10.102 155.614 7.98182C155.614 5.86165 154.735 3.99091 153.102 2.49432Z" fill="#00B5FF"/>
</mask>
<g mask="url(#mask0_42_167)">
<rect x="126.293" y="10.3227" width="30.0675" height="15.0844" fill="#FFBC57"/>
</g>
<path d="M7.23477 14.4V40.8C7.23477 41.52 6.75246 42 6.02898 42H1.2058C0.482318 42 0 41.52 0 40.8V14.4C0 13.68 0.482318 13.2 1.2058 13.2H6.02898C6.75246 13.2 7.23477 13.8 7.23477 14.4ZM72.7942 13.2H67.971C67.2476 13.2 66.7652 13.68 66.7652 14.4V40.8C66.7652 41.52 67.2476 42 67.971 42H72.7942C73.5177 42 74 41.52 74 40.8V14.4C74 13.8 73.5177 13.2 72.7942 13.2Z" fill="#FFBC57"/>
<path d="M64.3537 21.6V28.8C64.3537 29.52 63.8714 30 63.1479 30H10.8522C10.1287 30 9.64639 29.52 9.64639 28.8V21.6C9.64639 20.88 10.1287 20.4 10.8522 20.4H63.1479C63.8714 20.4 64.3537 20.88 64.3537 21.6ZM10.8522 18H25.0686C25.7921 18 26.2744 17.52 26.2744 16.8V1.2C26.2744 0.48 25.7921 0 25.0686 0H10.8522C10.1287 0 9.64639 0.48 9.64639 1.2V16.8C9.64639 17.52 10.1287 18 10.8522 18ZM29.8918 18H44.1083C44.8317 18 45.3141 17.52 45.3141 16.8V1.2C45.3141 0.48 44.8317 0 44.1083 0H29.8918C29.1683 0 28.686 0.48 28.686 1.2V16.8C28.686 17.52 29.1683 18 29.8918 18ZM63.1479 0H48.9314C48.208 0 47.7256 0.48 47.7256 1.2V16.8C47.7256 17.52 48.208 18 48.9314 18H63.1479C63.8714 18 64.3537 17.52 64.3537 16.8V1.2C64.3537 0.48 63.8714 0 63.1479 0ZM63.1479 32.4H10.8522C10.1287 32.4 9.64639 32.88 9.64639 33.6V40.8C9.64639 41.52 10.1287 42 10.8522 42H17.8339C18.5573 42 19.0397 41.52 19.0397 40.8V39.6H54.9604V40.8C54.9604 41.52 55.4427 42 56.1662 42H63.1479C63.8714 42 64.3537 41.52 64.3537 40.8V33.6C64.3537 32.88 63.8714 32.4 63.1479 32.4Z" fill="#FFBC57"/>
<path d="M93.888 42V32.512H90.512V31.328H98.608V32.512H95.216V42H93.888ZM100.373 42V31.328H107.365V32.512H101.701V35.952H107.253V37.136H101.701V40.816H107.365V42H100.373ZM116.858 42L113.45 37.456L110.042 42H108.426L112.586 36.528L108.666 31.328H110.282L113.45 35.6L116.602 31.328H118.218L114.314 36.512L118.458 42H116.858ZM127.488 42V37.104H121.248V42H119.92V31.328H121.248V35.92H127.488V31.328H128.816V42H127.488ZM136.175 42.192C135.385 42.192 134.665 42.0533 134.015 41.776C133.364 41.4987 132.804 41.1147 132.335 40.624C131.876 40.1227 131.519 39.536 131.263 38.864C131.007 38.192 130.879 37.4613 130.879 36.672C130.879 35.8827 131.007 35.152 131.263 34.48C131.519 33.808 131.876 33.2267 132.335 32.736C132.804 32.2347 133.364 31.8453 134.015 31.568C134.665 31.2907 135.385 31.152 136.175 31.152C136.964 31.152 137.684 31.2907 138.335 31.568C138.985 31.8453 139.54 32.2347 139.999 32.736C140.468 33.2267 140.831 33.808 141.087 34.48C141.343 35.152 141.471 35.8827 141.471 36.672C141.471 37.4613 141.343 38.192 141.087 38.864C140.831 39.536 140.468 40.1227 139.999 40.624C139.54 41.1147 138.985 41.4987 138.335 41.776C137.684 42.0533 136.964 42.192 136.175 42.192ZM136.175 41.008C136.772 41.008 137.311 40.9013 137.791 40.688C138.271 40.464 138.681 40.16 139.023 39.776C139.364 39.3813 139.625 38.9227 139.807 38.4C139.999 37.8667 140.095 37.2907 140.095 36.672C140.095 36.0533 139.999 35.4773 139.807 34.944C139.625 34.4107 139.364 33.952 139.023 33.568C138.681 33.184 138.271 32.8853 137.791 32.672C137.311 32.448 136.772 32.336 136.175 32.336C135.577 32.336 135.033 32.448 134.543 32.672C134.063 32.8853 133.652 33.184 133.311 33.568C132.969 33.952 132.708 34.4107 132.527 34.944C132.345 35.4773 132.255 36.0533 132.255 36.672C132.255 37.2907 132.345 37.8667 132.527 38.4C132.708 38.9227 132.969 39.3813 133.311 39.776C133.652 40.16 134.063 40.464 134.543 40.688C135.033 40.9013 135.577 41.008 136.175 41.008ZM142.215 41.008C142.535 41.008 142.818 40.9547 143.063 40.848C143.319 40.7307 143.548 40.5173 143.751 40.208C143.954 39.888 144.124 39.4507 144.263 38.896C144.412 38.3307 144.546 37.5947 144.663 36.688L145.319 31.328H151.847V42H150.519V32.512H146.503L145.975 36.784C145.826 37.9573 145.634 38.9013 145.399 39.616C145.175 40.32 144.903 40.864 144.583 41.248C144.274 41.632 143.922 41.8827 143.527 42C143.132 42.128 142.695 42.192 142.215 42.192V41.008ZM159.206 42.192C158.416 42.192 157.696 42.0533 157.046 41.776C156.395 41.4987 155.835 41.1147 155.366 40.624C154.907 40.1227 154.55 39.536 154.294 38.864C154.038 38.192 153.91 37.4613 153.91 36.672C153.91 35.8827 154.038 35.152 154.294 34.48C154.55 33.808 154.907 33.2267 155.366 32.736C155.835 32.2347 156.395 31.8453 157.046 31.568C157.696 31.2907 158.416 31.152 159.206 31.152C159.995 31.152 160.715 31.2907 161.366 31.568C162.016 31.8453 162.571 32.2347 163.03 32.736C163.499 33.2267 163.862 33.808 164.118 34.48C164.374 35.152 164.502 35.8827 164.502 36.672C164.502 37.4613 164.374 38.192 164.118 38.864C163.862 39.536 163.499 40.1227 163.03 40.624C162.571 41.1147 162.016 41.4987 161.366 41.776C160.715 42.0533 159.995 42.192 159.206 42.192ZM159.206 41.008C159.803 41.008 160.342 40.9013 160.822 40.688C161.302 40.464 161.712 40.16 162.054 39.776C162.395 39.3813 162.656 38.9227 162.838 38.4C163.03 37.8667 163.126 37.2907 163.126 36.672C163.126 36.0533 163.03 35.4773 162.838 34.944C162.656 34.4107 162.395 33.952 162.054 33.568C161.712 33.184 161.302 32.8853 160.822 32.672C160.342 32.448 159.803 32.336 159.206 32.336C158.608 32.336 158.064 32.448 157.574 32.672C157.094 32.8853 156.683 33.184 156.342 33.568C156 33.952 155.739 34.4107 155.558 34.944C155.376 35.4773 155.286 36.0533 155.286 36.672C155.286 37.2907 155.376 37.8667 155.558 38.4C155.739 38.9227 156 39.3813 156.342 39.776C156.683 40.16 157.094 40.464 157.574 40.688C158.064 40.9013 158.608 41.008 159.206 41.008ZM166.576 42V31.328H173.568V32.512H167.904V42H166.576ZM175.373 42V31.328H176.701V39.664L182.845 31.328H184.205V42H182.877V33.488L176.653 42H175.373ZM186.701 42V31.328H188.029V39.664L194.173 31.328H195.533V42H194.205V33.488L187.981 42H186.701ZM207.21 42.192C206.442 42.192 205.722 42.0587 205.05 41.792C204.389 41.5253 203.808 41.152 203.306 40.672C202.816 40.1813 202.426 39.6 202.138 38.928C201.861 38.2453 201.722 37.4933 201.722 36.672C201.722 35.8507 201.861 35.104 202.138 34.432C202.426 33.7493 202.816 33.168 203.306 32.688C203.808 32.1973 204.389 31.8187 205.05 31.552C205.722 31.2853 206.442 31.152 207.21 31.152C207.68 31.152 208.112 31.2053 208.506 31.312C208.912 31.4187 209.28 31.568 209.61 31.76C209.952 31.952 210.256 32.176 210.522 32.432C210.8 32.688 211.045 32.9653 211.258 33.264L210.138 33.888C209.829 33.44 209.413 33.072 208.89 32.784C208.378 32.4853 207.818 32.336 207.21 32.336C206.624 32.336 206.08 32.4427 205.578 32.656C205.077 32.8693 204.64 33.168 204.266 33.552C203.904 33.936 203.616 34.3947 203.402 34.928C203.2 35.4507 203.098 36.032 203.098 36.672C203.098 37.3013 203.2 37.8827 203.402 38.416C203.616 38.9493 203.904 39.408 204.266 39.792C204.64 40.176 205.077 40.4747 205.578 40.688C206.08 40.9013 206.624 41.008 207.21 41.008C207.818 41.008 208.378 40.864 208.89 40.576C209.413 40.288 209.829 39.9147 210.138 39.456L211.274 40.08C210.826 40.688 210.272 41.1947 209.61 41.6C208.96 41.9947 208.16 42.192 207.21 42.192ZM220.535 42V37.104H214.295V42H212.967V31.328H214.295V35.92H220.535V31.328H221.863V42H220.535ZM231.973 42L231.029 39.632H225.717L224.773 42H223.253L227.541 31.328H229.189L233.493 42H231.973ZM228.373 32.704L226.101 38.448H230.629L228.373 32.704Z" fill="#535353"/>
</svg>
