<svg width="40" height="40" viewBox="0 0 40 40" fill="none" xmlns="http://www.w3.org/2000/svg">
<g clip-path="url(#clip0_68_391)">
<path d="M20 40C31.0457 40 40 31.0457 40 20C40 8.9543 31.0457 0 20 0C8.9543 0 0 8.9543 0 20C0 31.0457 8.9543 40 20 40Z" fill="#6F3FAA"/>
<path d="M30.5803 14.0566L30.5737 14.0302C30.0393 11.8698 27.6301 9.55166 25.4176 9.06939L25.3927 9.06424C21.8141 8.38158 18.1856 8.38158 14.6078 9.06424L14.5821 9.06939C12.3703 9.55166 9.96105 11.8699 9.42597 14.0302L9.42003 14.0566C8.7594 17.0735 8.7594 20.1332 9.42003 23.1502L9.42597 23.1766C9.93831 25.2447 12.1681 27.4564 14.298 28.0646V30.4762C14.298 31.3491 15.3617 31.7778 15.9665 31.1478L18.4099 28.6081C18.9399 28.6377 19.4701 28.6542 20.0002 28.6542C21.8015 28.6542 23.6037 28.4838 25.3926 28.1426L25.4175 28.1374C27.63 27.6552 30.0392 25.3369 30.5736 23.1767L30.5802 23.1503C31.2408 20.1332 31.2408 17.0737 30.5803 14.0566ZM28.6466 22.7128C28.2898 24.1222 26.4606 25.8744 25.0071 26.1981C23.1044 26.56 21.1865 26.7146 19.2706 26.6616C19.2325 26.6605 19.1958 26.6753 19.1693 26.7027C18.8974 26.9817 17.3853 28.5341 17.3853 28.5341L15.4878 30.4816C15.3491 30.6263 15.1053 30.5278 15.1053 30.3281V26.3331C15.1053 26.2671 15.0582 26.2111 14.9934 26.1983C14.993 26.1981 14.9927 26.1981 14.9923 26.1981C13.5389 25.8743 11.7103 24.1221 11.3528 22.7127C10.7582 19.9856 10.7582 17.2211 11.3528 14.4941C11.7103 13.0846 13.5389 11.3324 14.9923 11.0087C18.3154 10.3767 21.6848 10.3767 25.0072 11.0087C26.4614 11.3324 28.2899 13.0846 28.6467 14.4941C29.2419 17.2212 29.2419 19.9857 28.6466 22.7128Z" fill="white"/>
<path d="M23.1618 24.557C22.9384 24.4891 22.7255 24.4435 22.5276 24.3616C20.4783 23.5113 18.5924 22.4145 17.0985 20.7331C16.249 19.777 15.5841 18.6976 15.0221 17.5552C14.7555 17.0135 14.5309 16.4506 14.3019 15.8913C14.0932 15.3813 14.4007 14.8544 14.7244 14.47C15.0282 14.1093 15.4192 13.8334 15.8427 13.6299C16.1732 13.4711 16.4991 13.5627 16.7405 13.8427C17.2622 14.4484 17.7416 15.0849 18.1296 15.787C18.3682 16.2188 18.3028 16.7466 17.8702 17.0404C17.765 17.1118 17.6692 17.1957 17.5714 17.2763C17.4854 17.347 17.4046 17.4184 17.3457 17.5141C17.2382 17.6892 17.233 17.8959 17.3022 18.0863C17.8356 19.552 18.7346 20.6918 20.21 21.3058C20.446 21.404 20.6831 21.5183 20.9551 21.4866C21.4106 21.4334 21.5581 20.9338 21.8773 20.6727C22.1893 20.4177 22.588 20.4143 22.924 20.627C23.2602 20.8398 23.586 21.0681 23.9099 21.2989C24.2278 21.5255 24.5443 21.747 24.8375 22.0053C25.1196 22.2537 25.2167 22.5795 25.0578 22.9164C24.7672 23.5337 24.3442 24.047 23.7341 24.3749C23.5618 24.4672 23.356 24.4971 23.1618 24.557C23.356 24.4971 22.9384 24.4891 23.1618 24.557Z" fill="white"/>
<path d="M20.0056 12.9239C22.686 12.9991 24.8876 14.7779 25.3594 17.4279C25.4398 17.8795 25.4684 18.341 25.5042 18.7994C25.5192 18.9921 25.41 19.1752 25.2021 19.1778C24.9872 19.1804 24.8906 19.0006 24.8765 18.808C24.8489 18.4266 24.8298 18.0434 24.7772 17.6652C24.4998 15.6684 22.9076 14.0165 20.9201 13.662C20.621 13.6087 20.315 13.5947 20.012 13.5629C19.8205 13.5428 19.5697 13.5313 19.5273 13.2931C19.4917 13.0935 19.6602 12.9346 19.8503 12.9244C19.9017 12.9213 19.9537 12.9238 20.0056 12.9239C19.9537 12.9238 22.6861 12.9991 20.0056 12.9239Z" fill="white"/>
<path d="M24.0792 18.2044C24.0748 18.2379 24.0725 18.3166 24.0528 18.3906C23.9817 18.6597 23.5736 18.6934 23.4798 18.4219C23.4519 18.3413 23.4477 18.2496 23.4476 18.1629C23.4466 17.5953 23.3233 17.0281 23.0369 16.5341C22.7426 16.0263 22.293 15.5997 21.7657 15.3413C21.4468 15.1853 21.102 15.0881 20.7525 15.0304C20.5998 15.0051 20.4454 14.9899 20.2919 14.9685C20.1059 14.9426 20.0065 14.8241 20.0154 14.6408C20.0236 14.4691 20.1491 14.3454 20.3363 14.3561C20.9514 14.391 21.5456 14.5241 22.0926 14.8136C23.2046 15.4026 23.8399 16.3321 24.0254 17.5735C24.0337 17.6298 24.0472 17.6854 24.0515 17.7418C24.0619 17.881 24.0686 18.0205 24.0792 18.2044C24.0686 18.0205 24.0748 18.2378 24.0792 18.2044Z" fill="white"/>
<path d="M22.412 18.1394C22.1878 18.1435 22.0678 18.0193 22.0446 17.8138C22.0286 17.6705 22.0158 17.5252 21.9815 17.3857C21.9142 17.1109 21.7682 16.8564 21.5371 16.688C21.428 16.6086 21.3044 16.5507 21.1749 16.5132C21.0105 16.4656 20.8395 16.4787 20.6755 16.4386C20.4973 16.3949 20.3987 16.2505 20.4268 16.0834C20.4523 15.9312 20.6002 15.8125 20.7665 15.8246C21.8058 15.8996 22.5485 16.4368 22.6545 17.6603C22.6621 17.7466 22.6708 17.8378 22.6517 17.9205C22.6187 18.0617 22.514 18.1325 22.412 18.1394C22.514 18.1325 22.1877 18.1434 22.412 18.1394Z" fill="white"/>
<path d="M23.1617 24.5567C23.3559 24.4969 22.9383 24.4888 23.1617 24.5567V24.5567Z" fill="white"/>
<path d="M20.0125 12.9241C20.0102 12.9241 20.008 12.9239 20.0057 12.9239C20.0036 12.9237 20.0064 12.9239 20.0125 12.9241Z" fill="white"/>
<path d="M20.0061 12.9238C20.0084 12.9238 20.0106 12.9241 20.0129 12.9241C20.1616 12.9294 22.581 12.996 20.0061 12.9238Z" fill="white"/>
<path d="M24.0792 18.2047C24.0686 18.0208 24.0747 18.2381 24.0792 18.2047V18.2047Z" fill="white"/>
<path d="M22.412 18.1396C22.4155 18.1394 22.4189 18.1376 22.4223 18.1372C22.4128 18.1372 22.3983 18.1374 22.3834 18.138C22.393 18.1382 22.4019 18.1397 22.412 18.1396Z" fill="white"/>
<path d="M22.412 18.1398C22.4019 18.14 22.393 18.1385 22.3833 18.1382C22.3348 18.1395 22.2847 18.1421 22.412 18.1398Z" fill="white"/>
<path d="M22.4222 18.1372C22.4186 18.1376 22.4153 18.1394 22.4119 18.1396C22.4382 18.1378 22.4359 18.1372 22.4222 18.1372Z" fill="white"/>
</g>
<defs>
<clipPath id="clip0_68_391">
<rect width="40" height="40" fill="white"/>
</clipPath>
</defs>
</svg>
