<svg width="25" height="24" viewBox="0 0 25 24" fill="none" xmlns="http://www.w3.org/2000/svg">
<path d="M22.21 4.72006L19.78 2.29006C19.5926 2.10381 19.3392 1.99927 19.075 1.99927C18.8108 1.99927 18.5574 2.10381 18.37 2.29006L12.79 7.87006C12.6973 7.9635 12.624 8.07432 12.5742 8.19615C12.5245 8.31799 12.4992 8.44845 12.5 8.58006V11.0001C12.5 11.2653 12.6053 11.5196 12.7929 11.7072C12.9804 11.8947 13.2348 12.0001 13.5 12.0001H15.92C16.0516 12.0008 16.1821 11.9756 16.3039 11.9258C16.4257 11.8761 16.5365 11.8027 16.63 11.7101L22.21 6.13006C22.3962 5.9427 22.5008 5.68925 22.5008 5.42506C22.5008 5.16087 22.3962 4.90742 22.21 4.72006ZM15.5 10.0001H14.5V9.00006L19.08 4.42006L20.08 5.42006L15.5 10.0001ZM19.5 12.0001C19.2348 12.0001 18.9804 12.1054 18.7929 12.293C18.6053 12.4805 18.5 12.7348 18.5 13.0001C18.5 14.8566 17.7625 16.6371 16.4497 17.9498C15.137 19.2626 13.3565 20.0001 11.5 20.0001H5.90999L6.54999 19.3701C6.64372 19.2771 6.71811 19.1665 6.76888 19.0446C6.81965 18.9228 6.84579 18.7921 6.84579 18.6601C6.84579 18.528 6.81965 18.3973 6.76888 18.2755C6.71811 18.1536 6.64372 18.043 6.54999 17.9501C5.57092 16.9711 4.90415 15.7238 4.63401 14.3658C4.36387 13.0079 4.5025 11.6004 5.03235 10.3212C5.56221 9.04206 6.45949 7.94878 7.61073 7.17961C8.76197 6.41045 10.1154 5.99996 11.5 6.00006C11.7652 6.00006 12.0196 5.8947 12.2071 5.70717C12.3946 5.51963 12.5 5.26528 12.5 5.00006C12.5 4.73484 12.3946 4.48049 12.2071 4.29295C12.0196 4.10542 11.7652 4.00006 11.5 4.00006C9.80745 4.00562 8.15079 4.48834 6.72017 5.3928C5.28956 6.29726 4.14298 7.58679 3.41206 9.11338C2.68113 10.64 2.3955 12.3417 2.58793 14.0233C2.78037 15.7048 3.44308 17.2981 4.49999 18.6201L2.78999 20.2901C2.65123 20.4307 2.55723 20.6093 2.51986 20.8032C2.48248 20.9972 2.50341 21.1979 2.57999 21.3801C2.65501 21.5627 2.7824 21.719 2.94613 21.8293C3.10985 21.9397 3.30256 21.9991 3.49999 22.0001H11.5C12.6819 22.0001 13.8522 21.7673 14.9441 21.315C16.0361 20.8627 17.0282 20.1997 17.8639 19.364C18.6997 18.5283 19.3626 17.5361 19.8149 16.4442C20.2672 15.3523 20.5 14.182 20.5 13.0001C20.5 12.7348 20.3946 12.4805 20.2071 12.293C20.0196 12.1054 19.7652 12.0001 19.5 12.0001Z" fill="white"/>
</svg>
