<svg width="50" height="50" viewBox="0 0 50 50" fill="none" xmlns="http://www.w3.org/2000/svg">
<circle cx="25" cy="25" r="24.5" fill="white" stroke="#FFBC57"/>
<path d="M28.3129 25.6338C29.1883 24.9451 29.8272 24.0007 30.1408 22.932C30.4544 21.8632 30.4271 20.7233 30.0627 19.6708C29.6983 18.6183 29.0149 17.7056 28.1076 17.0596C27.2003 16.4136 26.1142 16.0664 25.0004 16.0664C23.8866 16.0664 22.8005 16.4136 21.8932 17.0596C20.9859 17.7056 20.3025 18.6183 19.9381 19.6708C19.5737 20.7233 19.5464 21.8632 19.86 22.932C20.1736 24.0007 20.8126 24.9451 21.6879 25.6338C20.188 26.2347 18.8793 27.2314 17.9012 28.5177C16.9232 29.8039 16.3125 31.3314 16.1344 32.9374C16.1215 33.0546 16.1318 33.1733 16.1647 33.2865C16.1977 33.3998 16.2526 33.5055 16.3264 33.5975C16.4754 33.7834 16.6922 33.9024 16.929 33.9285C17.1658 33.9545 17.4032 33.8854 17.5891 33.7364C17.775 33.5874 17.894 33.3706 17.9201 33.1338C18.1161 31.3884 18.9484 29.7765 20.2578 28.6059C21.5672 27.4354 23.2619 26.7883 25.0183 26.7883C26.7746 26.7883 28.4694 27.4354 29.7788 28.6059C31.0882 29.7765 31.9204 31.3884 32.1165 33.1338C32.1408 33.3532 32.2455 33.5558 32.4103 33.7026C32.5752 33.8493 32.7886 33.9298 33.0094 33.9285H33.1076C33.3416 33.9015 33.5555 33.7832 33.7027 33.5992C33.8499 33.4152 33.9184 33.1806 33.8933 32.9463C33.7143 31.3358 33.1003 29.8043 32.1173 28.5161C31.1342 27.2279 29.8191 26.2316 28.3129 25.6338ZM25.0004 24.9999C24.2941 24.9999 23.6036 24.7904 23.0162 24.398C22.4289 24.0056 21.9712 23.4478 21.7009 22.7952C21.4305 22.1426 21.3598 21.4245 21.4976 20.7317C21.6354 20.0389 21.9756 19.4025 22.475 18.9031C22.9745 18.4036 23.6109 18.0635 24.3037 17.9257C24.9965 17.7878 25.7146 17.8586 26.3672 18.1289C27.0197 18.3992 27.5775 18.857 27.97 19.4443C28.3624 20.0316 28.5719 20.7221 28.5719 21.4285C28.5719 22.3757 28.1956 23.2841 27.5258 23.9538C26.856 24.6236 25.9476 24.9999 25.0004 24.9999Z" fill="#535353"/>
</svg>
