<svg width="90" height="90" viewBox="0 0 90 90" fill="none" xmlns="http://www.w3.org/2000/svg">
<g filter="url(#filter0_d_83_572)">
<circle cx="48" cy="41" r="30" fill="white"/>
<circle cx="48" cy="41" r="29.5" stroke="#E3E2E2"/>
</g>
<g clip-path="url(#clip0_83_572)">
<path d="M42.7158 35.2899C42.6228 35.1962 42.5122 35.1218 42.3904 35.071C42.2685 35.0203 42.1378 34.9941 42.0058 34.9941C41.8738 34.9941 41.7431 35.0203 41.6212 35.071C41.4994 35.1218 41.3888 35.1962 41.2958 35.2899L36.2958 40.2899C36.2021 40.3829 36.1277 40.4935 36.0769 40.6154C36.0261 40.7372 36 40.8679 36 40.9999C36 41.132 36.0261 41.2627 36.0769 41.3845C36.1277 41.5064 36.2021 41.617 36.2958 41.7099L41.2958 46.7099C41.3888 46.8037 41.4994 46.8781 41.6212 46.9288C41.7431 46.9796 41.8738 47.0057 42.0058 47.0057C42.1378 47.0057 42.2685 46.9796 42.3904 46.9288C42.5122 46.8781 42.6228 46.8037 42.7158 46.7099C42.8095 46.617 42.8839 46.5064 42.9347 46.3845C42.9855 46.2627 43.0116 46.132 43.0116 45.9999C43.0116 45.8679 42.9855 45.7372 42.9347 45.6154C42.8839 45.4935 42.8095 45.3829 42.7158 45.2899L38.4158 40.9999L42.7158 36.7099C42.8095 36.617 42.8839 36.5064 42.9347 36.3845C42.9855 36.2627 43.0116 36.132 43.0116 35.9999C43.0116 35.8679 42.9855 35.7372 42.9347 35.6154C42.8839 35.4935 42.8095 35.3829 42.7158 35.2899ZM59.7158 40.2899L54.7158 35.2899C54.6226 35.1967 54.5119 35.1227 54.39 35.0723C54.2682 35.0218 54.1377 34.9958 54.0058 34.9958C53.7395 34.9958 53.4841 35.1016 53.2958 35.2899C53.2026 35.3832 53.1286 35.4939 53.0781 35.6157C53.0277 35.7375 53.0017 35.8681 53.0017 35.9999C53.0017 36.2662 53.1075 36.5216 53.2958 36.7099L57.5958 40.9999L53.2958 45.2899C53.2021 45.3829 53.1277 45.4935 53.0769 45.6154C53.0261 45.7372 53 45.8679 53 45.9999C53 46.132 53.0261 46.2627 53.0769 46.3845C53.1277 46.5064 53.2021 46.617 53.2958 46.7099C53.3888 46.8037 53.4994 46.8781 53.6212 46.9288C53.7431 46.9796 53.8738 47.0057 54.0058 47.0057C54.1378 47.0057 54.2685 46.9796 54.3904 46.9288C54.5122 46.8781 54.6228 46.8037 54.7158 46.7099L59.7158 41.7099C59.8095 41.617 59.8839 41.5064 59.9347 41.3845C59.9855 41.2627 60.0116 41.132 60.0116 40.9999C60.0116 40.8679 59.9855 40.7372 59.9347 40.6154C59.8839 40.4935 59.8095 40.3829 59.7158 40.2899Z" fill="#535353"/>
</g>
<defs>
<filter id="filter0_d_83_572" x="0" y="0" width="90" height="90" filterUnits="userSpaceOnUse" color-interpolation-filters="sRGB">
<feFlood flood-opacity="0" result="BackgroundImageFix"/>
<feColorMatrix in="SourceAlpha" type="matrix" values="0 0 0 0 0 0 0 0 0 0 0 0 0 0 0 0 0 0 127 0" result="hardAlpha"/>
<feOffset dx="-3" dy="4"/>
<feGaussianBlur stdDeviation="7.5"/>
<feComposite in2="hardAlpha" operator="out"/>
<feColorMatrix type="matrix" values="0 0 0 0 0 0 0 0 0 0 0 0 0 0 0 0 0 0 0.06 0"/>
<feBlend mode="normal" in2="BackgroundImageFix" result="effect1_dropShadow_83_572"/>
<feBlend mode="normal" in="SourceGraphic" in2="effect1_dropShadow_83_572" result="shape"/>
</filter>
<clipPath id="clip0_83_572">
<rect width="24" height="24" fill="white" transform="translate(36 29)"/>
</clipPath>
</defs>
</svg>
