<svg width="80" height="80" viewBox="0 0 80 80" fill="none" xmlns="http://www.w3.org/2000/svg">
<g clip-path="url(#clip0_68_538)">
<circle cx="40" cy="40" r="40" fill="white"/>
<path d="M17.0153 35.1198V55.5059C17.0153 56.0618 16.6428 56.4325 16.0841 56.4325H12.3597C11.801 56.4325 11.4286 56.0618 11.4286 55.5059V35.1198C11.4286 34.5638 11.801 34.1931 12.3597 34.1931H16.0841C16.6428 34.1931 17.0153 34.6564 17.0153 35.1198ZM67.6403 34.1931H63.9158C63.3572 34.1931 62.9847 34.5638 62.9847 35.1198V55.5059C62.9847 56.0618 63.3572 56.4325 63.9158 56.4325H67.6403C68.199 56.4325 68.5714 56.0618 68.5714 55.5059V35.1198C68.5714 34.6564 68.199 34.1931 67.6403 34.1931Z" fill="#FFBC57"/>
<path d="M61.1225 40.6795V46.2394C61.1225 46.7954 60.7501 47.166 60.1914 47.166H19.8086C19.2499 47.166 18.8775 46.7954 18.8775 46.2394V40.6795C18.8775 40.1236 19.2499 39.7529 19.8086 39.7529H60.1914C60.7501 39.7529 61.1225 40.1236 61.1225 40.6795ZM19.8086 37.8996H30.7866C31.3452 37.8996 31.7177 37.529 31.7177 36.973V24.9266C31.7177 24.3707 31.3452 24 30.7866 24H19.8086C19.2499 24 18.8775 24.3707 18.8775 24.9266V36.973C18.8775 37.529 19.2499 37.8996 19.8086 37.8996ZM34.511 37.8996H45.489C46.0476 37.8996 46.4201 37.529 46.4201 36.973V24.9266C46.4201 24.3707 46.0476 24 45.489 24H34.511C33.9524 24 33.5799 24.3707 33.5799 24.9266V36.973C33.5799 37.529 33.9524 37.8996 34.511 37.8996ZM60.1914 24H49.2134C48.6548 24 48.2823 24.3707 48.2823 24.9266V36.973C48.2823 37.529 48.6548 37.8996 49.2134 37.8996H60.1914C60.7501 37.8996 61.1225 37.529 61.1225 36.973V24.9266C61.1225 24.3707 60.7501 24 60.1914 24ZM60.1914 49.0193H19.8086C19.2499 49.0193 18.8775 49.39 18.8775 49.9459V55.5058C18.8775 56.0618 19.2499 56.4324 19.8086 56.4324H25.1999C25.7585 56.4324 26.131 56.0618 26.131 55.5058V54.5791H53.869V55.5058C53.869 56.0618 54.2415 56.4324 54.8001 56.4324H60.1914C60.7501 56.4324 61.1225 56.0618 61.1225 55.5058V49.9459C61.1225 49.39 60.7501 49.0193 60.1914 49.0193Z" fill="#FFBC57"/>
</g>
<defs>
<clipPath id="clip0_68_538">
<rect width="80" height="80" fill="white"/>
</clipPath>
</defs>
</svg>
